<svg width="183" height="62" viewBox="0 0 183 62" fill="none" xmlns="http://www.w3.org/2000/svg">
<rect width="183" height="62" rx="8" fill="#111928"/>
<path d="M39.1863 29.9935L42.8102 26.3696L25.8382 16.585L39.1863 29.9935ZM22.3954 15.7998C21.6102 16.2226 21.0667 17.0078 21.0667 17.9742V44.6101C21.0667 45.5764 21.6102 46.3616 22.3954 46.724L37.8575 31.2619L22.3954 15.7998ZM48.0649 29.4499L44.5014 27.3964L40.5151 31.2619L44.5014 35.1878L48.1253 33.1343C49.2125 32.2887 49.2125 30.2955 48.0649 29.4499ZM25.8382 45.9388L42.8102 36.2146L39.1863 32.5907L25.8382 45.9388Z" fill="white"/>
<path d="M66.2207 23.5H63.5275V14.7727H66.34C67.1866 14.7727 67.911 14.9474 68.5133 15.2969C69.1156 15.6435 69.5772 16.142 69.8983 16.7926C70.2193 17.4403 70.3798 18.2159 70.3798 19.1193C70.3798 20.0284 70.2179 20.8111 69.894 21.4673C69.5701 22.1207 69.0985 22.6236 68.4792 22.9759C67.8599 23.3253 67.1071 23.5 66.2207 23.5ZM64.5843 22.5625H66.1525C66.8741 22.5625 67.4721 22.4233 67.9466 22.1449C68.421 21.8665 68.7747 21.4702 69.0076 20.956C69.2406 20.4418 69.3571 19.8295 69.3571 19.1193C69.3571 18.4148 69.242 17.8082 69.0119 17.2997C68.7818 16.7884 68.438 16.3963 67.9806 16.1236C67.5233 15.848 66.9537 15.7102 66.2718 15.7102H64.5843V22.5625ZM74.6752 23.6364C74.0843 23.6364 73.5659 23.4957 73.1199 23.2145C72.6767 22.9332 72.3301 22.5398 72.0801 22.0341C71.8329 21.5284 71.7093 20.9375 71.7093 20.2614C71.7093 19.5795 71.8329 18.9844 72.0801 18.4759C72.3301 17.9673 72.6767 17.5724 73.1199 17.2912C73.5659 17.0099 74.0843 16.8693 74.6752 16.8693C75.2662 16.8693 75.7832 17.0099 76.2264 17.2912C76.6724 17.5724 77.019 17.9673 77.2662 18.4759C77.5162 18.9844 77.6412 19.5795 77.6412 20.2614C77.6412 20.9375 77.5162 21.5284 77.2662 22.0341C77.019 22.5398 76.6724 22.9332 76.2264 23.2145C75.7832 23.4957 75.2662 23.6364 74.6752 23.6364ZM74.6752 22.733C75.1241 22.733 75.4934 22.6179 75.7832 22.3878C76.073 22.1577 76.2875 21.8551 76.4267 21.4801C76.5659 21.1051 76.6355 20.6989 76.6355 20.2614C76.6355 19.8239 76.5659 19.4162 76.4267 19.0384C76.2875 18.6605 76.073 18.3551 75.7832 18.1222C75.4934 17.8892 75.1241 17.7727 74.6752 17.7727C74.2264 17.7727 73.8571 17.8892 73.5673 18.1222C73.2775 18.3551 73.063 18.6605 72.9238 19.0384C72.7846 19.4162 72.715 19.8239 72.715 20.2614C72.715 20.6989 72.7846 21.1051 72.9238 21.4801C73.063 21.8551 73.2775 22.1577 73.5673 22.3878C73.8571 22.6179 74.2264 22.733 74.6752 22.733ZM80.4366 23.5L78.4423 16.9545H79.4991L80.9139 21.9659H80.9821L82.3798 16.9545H83.4537L84.8343 21.9489H84.9025L86.3173 16.9545H87.3741L85.3798 23.5H84.3912L82.9593 18.4716H82.8571L81.4252 23.5H80.4366ZM89.7093 19.5625V23.5H88.7037V16.9545H89.6752V17.9773H89.7605C89.9139 17.6449 90.1468 17.3778 90.4593 17.1761C90.7718 16.9716 91.1752 16.8693 91.6696 16.8693C92.1127 16.8693 92.5005 16.9602 92.8329 17.142C93.1653 17.321 93.4238 17.5938 93.6085 17.9602C93.7931 18.3239 93.8855 18.7841 93.8855 19.3409V23.5H92.8798V19.4091C92.8798 18.8949 92.7463 18.4943 92.4792 18.2074C92.2122 17.9176 91.8457 17.7727 91.3798 17.7727C91.0588 17.7727 90.7718 17.8423 90.519 17.9815C90.269 18.1207 90.0716 18.3239 89.9267 18.5909C89.7818 18.858 89.7093 19.1818 89.7093 19.5625ZM96.7289 14.7727V23.5H95.7232V14.7727H96.7289ZM101.23 23.6364C100.639 23.6364 100.121 23.4957 99.6745 23.2145C99.2314 22.9332 98.8848 22.5398 98.6348 22.0341C98.3876 21.5284 98.264 20.9375 98.264 20.2614C98.264 19.5795 98.3876 18.9844 98.6348 18.4759C98.8848 17.9673 99.2314 17.5724 99.6745 17.2912C100.121 17.0099 100.639 16.8693 101.23 16.8693C101.821 16.8693 102.338 17.0099 102.781 17.2912C103.227 17.5724 103.574 17.9673 103.821 18.4759C104.071 18.9844 104.196 19.5795 104.196 20.2614C104.196 20.9375 104.071 21.5284 103.821 22.0341C103.574 22.5398 103.227 22.9332 102.781 23.2145C102.338 23.4957 101.821 23.6364 101.23 23.6364ZM101.23 22.733C101.679 22.733 102.048 22.6179 102.338 22.3878C102.628 22.1577 102.842 21.8551 102.981 21.4801C103.121 21.1051 103.19 20.6989 103.19 20.2614C103.19 19.8239 103.121 19.4162 102.981 19.0384C102.842 18.6605 102.628 18.3551 102.338 18.1222C102.048 17.8892 101.679 17.7727 101.23 17.7727C100.781 17.7727 100.412 17.8892 100.122 18.1222C99.8322 18.3551 99.6177 18.6605 99.4785 19.0384C99.3393 19.4162 99.2697 19.8239 99.2697 20.2614C99.2697 20.6989 99.3393 21.1051 99.4785 21.4801C99.6177 21.8551 99.8322 22.1577 100.122 22.3878C100.412 22.6179 100.781 22.733 101.23 22.733ZM107.657 23.6534C107.242 23.6534 106.866 23.5753 106.528 23.419C106.19 23.2599 105.921 23.0312 105.722 22.733C105.524 22.4318 105.424 22.0682 105.424 21.642C105.424 21.267 105.498 20.9631 105.646 20.7301C105.794 20.4943 105.991 20.3097 106.238 20.1761C106.485 20.0426 106.758 19.9432 107.056 19.8778C107.357 19.8097 107.66 19.7557 107.964 19.7159C108.362 19.6648 108.684 19.6264 108.931 19.6009C109.181 19.5724 109.363 19.5256 109.477 19.4602C109.593 19.3949 109.651 19.2812 109.651 19.1193V19.0852C109.651 18.6648 109.536 18.3381 109.306 18.1051C109.079 17.8722 108.734 17.7557 108.271 17.7557C107.791 17.7557 107.414 17.8608 107.142 18.071C106.869 18.2812 106.677 18.5057 106.566 18.7443L105.612 18.4034C105.782 18.0057 106.009 17.696 106.294 17.4744C106.58 17.25 106.893 17.0937 107.231 17.0057C107.572 16.9148 107.907 16.8693 108.237 16.8693C108.447 16.8693 108.688 16.8949 108.961 16.946C109.237 16.9943 109.502 17.0952 109.758 17.2486C110.017 17.402 110.231 17.6335 110.401 17.9432C110.572 18.2528 110.657 18.6676 110.657 19.1875V23.5H109.651V22.6136H109.6C109.532 22.7557 109.419 22.9077 109.259 23.0696C109.1 23.2315 108.889 23.3693 108.624 23.483C108.36 23.5966 108.038 23.6534 107.657 23.6534ZM107.811 22.75C108.208 22.75 108.544 22.6719 108.816 22.5156C109.092 22.3594 109.299 22.1577 109.438 21.9105C109.58 21.6634 109.651 21.4034 109.651 21.1307V20.2102C109.609 20.2614 109.515 20.3082 109.37 20.3509C109.228 20.3906 109.063 20.4261 108.876 20.4574C108.691 20.4858 108.511 20.5114 108.335 20.5341C108.161 20.554 108.021 20.571 107.913 20.5852C107.651 20.6193 107.407 20.6747 107.18 20.7514C106.955 20.8253 106.774 20.9375 106.634 21.0881C106.498 21.2358 106.43 21.4375 106.43 21.6932C106.43 22.0426 106.559 22.3068 106.818 22.4858C107.079 22.6619 107.41 22.75 107.811 22.75ZM114.964 23.6364C114.419 23.6364 113.937 23.4986 113.52 23.223C113.102 22.9446 112.775 22.5526 112.54 22.0469C112.304 21.5384 112.186 20.9375 112.186 20.2443C112.186 19.5568 112.304 18.9602 112.54 18.4545C112.775 17.9489 113.104 17.5582 113.524 17.2827C113.944 17.0071 114.43 16.8693 114.981 16.8693C115.407 16.8693 115.744 16.9403 115.991 17.0824C116.241 17.2216 116.432 17.3807 116.562 17.5597C116.696 17.7358 116.8 17.8807 116.873 17.9943H116.959V14.7727H117.964V23.5H116.993V22.4943H116.873C116.8 22.6136 116.694 22.7642 116.558 22.946C116.422 23.125 116.227 23.2855 115.974 23.4276C115.721 23.5668 115.385 23.6364 114.964 23.6364ZM115.101 22.733C115.504 22.733 115.845 22.6278 116.123 22.4176C116.402 22.2045 116.613 21.9105 116.758 21.5355C116.903 21.1577 116.976 20.7216 116.976 20.2273C116.976 19.7386 116.905 19.3111 116.763 18.9446C116.621 18.5753 116.41 18.2884 116.132 18.0838C115.854 17.8764 115.51 17.7727 115.101 17.7727C114.675 17.7727 114.319 17.8821 114.035 18.1009C113.754 18.3168 113.542 18.6108 113.4 18.983C113.261 19.3523 113.192 19.767 113.192 20.2273C113.192 20.6932 113.263 21.1165 113.405 21.4972C113.55 21.875 113.763 22.1761 114.044 22.4006C114.328 22.6222 114.68 22.733 115.101 22.733ZM125.98 23.6364C125.389 23.6364 124.871 23.4957 124.425 23.2145C123.981 22.9332 123.635 22.5398 123.385 22.0341C123.138 21.5284 123.014 20.9375 123.014 20.2614C123.014 19.5795 123.138 18.9844 123.385 18.4759C123.635 17.9673 123.981 17.5724 124.425 17.2912C124.871 17.0099 125.389 16.8693 125.98 16.8693C126.571 16.8693 127.088 17.0099 127.531 17.2912C127.977 17.5724 128.324 17.9673 128.571 18.4759C128.821 18.9844 128.946 19.5795 128.946 20.2614C128.946 20.9375 128.821 21.5284 128.571 22.0341C128.324 22.5398 127.977 22.9332 127.531 23.2145C127.088 23.4957 126.571 23.6364 125.98 23.6364ZM125.98 22.733C126.429 22.733 126.798 22.6179 127.088 22.3878C127.378 22.1577 127.592 21.8551 127.731 21.4801C127.871 21.1051 127.94 20.6989 127.94 20.2614C127.94 19.8239 127.871 19.4162 127.731 19.0384C127.592 18.6605 127.378 18.3551 127.088 18.1222C126.798 17.8892 126.429 17.7727 125.98 17.7727C125.531 17.7727 125.162 17.8892 124.872 18.1222C124.582 18.3551 124.368 18.6605 124.229 19.0384C124.089 19.4162 124.02 19.8239 124.02 20.2614C124.02 20.6989 124.089 21.1051 124.229 21.4801C124.368 21.8551 124.582 22.1577 124.872 22.3878C125.162 22.6179 125.531 22.733 125.98 22.733ZM131.487 19.5625V23.5H130.481V16.9545H131.453V17.9773H131.538C131.691 17.6449 131.924 17.3778 132.237 17.1761C132.549 16.9716 132.953 16.8693 133.447 16.8693C133.89 16.8693 134.278 16.9602 134.61 17.142C134.943 17.321 135.201 17.5938 135.386 17.9602C135.57 18.3239 135.663 18.7841 135.663 19.3409V23.5H134.657V19.4091C134.657 18.8949 134.524 18.4943 134.257 18.2074C133.99 17.9176 133.623 17.7727 133.157 17.7727C132.836 17.7727 132.549 17.8423 132.296 17.9815C132.046 18.1207 131.849 18.3239 131.704 18.5909C131.559 18.858 131.487 19.1818 131.487 19.5625ZM143.722 16.9545V17.8068H140.33V16.9545H143.722ZM141.319 15.3864H142.324V21.625C142.324 21.9091 142.366 22.1222 142.448 22.2642C142.533 22.4034 142.641 22.4972 142.772 22.5455C142.905 22.5909 143.046 22.6136 143.194 22.6136C143.305 22.6136 143.395 22.608 143.466 22.5966C143.537 22.5824 143.594 22.571 143.637 22.5625L143.841 23.4659C143.773 23.4915 143.678 23.517 143.556 23.5426C143.434 23.571 143.279 23.5852 143.091 23.5852C142.807 23.5852 142.529 23.5241 142.256 23.402C141.986 23.2798 141.762 23.0938 141.583 22.8438C141.407 22.5938 141.319 22.2784 141.319 21.8977V15.3864ZM146.381 19.5625V23.5H145.376V14.7727H146.381V17.9773H146.466C146.62 17.6392 146.85 17.3707 147.157 17.1719C147.466 16.9702 147.878 16.8693 148.393 16.8693C148.839 16.8693 149.229 16.9588 149.564 17.1378C149.9 17.3139 150.16 17.5852 150.344 17.9517C150.532 18.3153 150.626 18.7784 150.626 19.3409V23.5H149.62V19.4091C149.62 18.8892 149.485 18.4872 149.215 18.2031C148.948 17.9162 148.577 17.7727 148.103 17.7727C147.773 17.7727 147.478 17.8423 147.216 17.9815C146.958 18.1207 146.753 18.3239 146.603 18.5909C146.455 18.858 146.381 19.1818 146.381 19.5625ZM155.21 23.6364C154.579 23.6364 154.035 23.4972 153.578 23.2188C153.123 22.9375 152.772 22.5455 152.525 22.0426C152.281 21.5369 152.159 20.9489 152.159 20.2784C152.159 19.608 152.281 19.017 152.525 18.5057C152.772 17.9915 153.116 17.5909 153.556 17.304C153.999 17.0142 154.517 16.8693 155.107 16.8693C155.448 16.8693 155.785 16.9261 156.117 17.0398C156.45 17.1534 156.752 17.3381 157.025 17.5938C157.298 17.8466 157.515 18.1818 157.677 18.5994C157.839 19.017 157.92 19.5312 157.92 20.142V20.5682H152.874V19.6989H156.897C156.897 19.3295 156.823 19 156.676 18.7102C156.531 18.4205 156.323 18.1918 156.053 18.0241C155.786 17.8565 155.471 17.7727 155.107 17.7727C154.707 17.7727 154.36 17.8722 154.068 18.071C153.778 18.267 153.555 18.5227 153.399 18.8381C153.242 19.1534 153.164 19.4915 153.164 19.8523V20.4318C153.164 20.9261 153.249 21.3452 153.42 21.6889C153.593 22.0298 153.833 22.2898 154.14 22.4688C154.447 22.6449 154.803 22.733 155.21 22.733C155.474 22.733 155.713 22.696 155.926 22.6222C156.142 22.5455 156.328 22.4318 156.484 22.2812C156.64 22.1278 156.761 21.9375 156.846 21.7102L157.818 21.983C157.715 22.3125 157.544 22.6023 157.302 22.8523C157.061 23.0994 156.762 23.2926 156.407 23.4318C156.052 23.5682 155.653 23.6364 155.21 23.6364Z" fill="white"/>
<path d="M72.2254 34.6406C72.1359 34.3295 72.0102 34.0547 71.8483 33.8161C71.6863 33.5732 71.4882 33.3686 71.2538 33.2024C71.0237 33.032 70.7595 32.902 70.4612 32.8125C70.1672 32.723 69.8412 32.6783 69.4832 32.6783C68.8142 32.6783 68.2261 32.8445 67.719 33.1768C67.2162 33.5092 66.8241 33.9929 66.5429 34.6278C66.2616 35.2585 66.121 36.0298 66.121 36.9418C66.121 37.8537 66.2595 38.6293 66.5365 39.2685C66.8135 39.9077 67.2055 40.3956 67.7126 40.7322C68.2197 41.0646 68.8184 41.2308 69.5088 41.2308C70.1352 41.2308 70.67 41.12 71.1132 40.8984C71.5606 40.6726 71.9015 40.3551 72.1359 39.946C72.3746 39.5369 72.4939 39.0533 72.4939 38.495L73.0564 38.5781H69.6814V36.4943H75.1594V38.1435C75.1594 39.294 74.9165 40.2827 74.4307 41.1094C73.9449 41.9318 73.2758 42.5668 72.4236 43.0142C71.5713 43.4574 70.5954 43.679 69.496 43.679C68.2687 43.679 67.1906 43.4084 66.2616 42.8672C65.3327 42.3217 64.6082 41.5483 64.0883 40.5469C63.5727 39.5412 63.3149 38.348 63.3149 36.9673C63.3149 35.9062 63.4683 34.9602 63.7751 34.1293C64.0862 33.294 64.5209 32.5866 65.0791 32.0071C65.6373 31.4276 66.2872 30.9865 67.0287 30.6839C67.7702 30.3814 68.5734 30.2301 69.4385 30.2301C70.18 30.2301 70.8703 30.3388 71.5095 30.5561C72.1487 30.7692 72.7155 31.0717 73.2098 31.4638C73.7084 31.8558 74.1153 32.3224 74.4307 32.8636C74.746 33.4006 74.9484 33.9929 75.0379 34.6406H72.2254ZM81.6233 43.6918C80.6304 43.6918 79.7718 43.4808 79.0473 43.0589C78.3271 42.6328 77.771 42.0405 77.379 41.282C76.9869 40.5192 76.7909 39.6349 76.7909 38.6293C76.7909 37.6151 76.9869 36.7287 77.379 35.9702C77.771 35.2074 78.3271 34.6151 79.0473 34.1932C79.7718 33.767 80.6304 33.554 81.6233 33.554C82.6162 33.554 83.4727 33.767 84.1929 34.1932C84.9173 34.6151 85.4756 35.2074 85.8676 35.9702C86.2597 36.7287 86.4557 37.6151 86.4557 38.6293C86.4557 39.6349 86.2597 40.5192 85.8676 41.282C85.4756 42.0405 84.9173 42.6328 84.1929 43.0589C83.4727 43.4808 82.6162 43.6918 81.6233 43.6918ZM81.6361 41.5824C82.0878 41.5824 82.4649 41.4545 82.7675 41.1989C83.07 40.9389 83.298 40.5852 83.4514 40.1378C83.6091 39.6903 83.6879 39.1811 83.6879 38.6101C83.6879 38.0391 83.6091 37.5298 83.4514 37.0824C83.298 36.6349 83.07 36.2812 82.7675 36.0213C82.4649 35.7614 82.0878 35.6314 81.6361 35.6314C81.1801 35.6314 80.7966 35.7614 80.4855 36.0213C80.1787 36.2812 79.9465 36.6349 79.7888 37.0824C79.6354 37.5298 79.5587 38.0391 79.5587 38.6101C79.5587 39.1811 79.6354 39.6903 79.7888 40.1378C79.9465 40.5852 80.1787 40.9389 80.4855 41.1989C80.7966 41.4545 81.1801 41.5824 81.6361 41.5824ZM92.6624 43.6918C91.6695 43.6918 90.8108 43.4808 90.0864 43.0589C89.3662 42.6328 88.8101 42.0405 88.4181 41.282C88.026 40.5192 87.83 39.6349 87.83 38.6293C87.83 37.6151 88.026 36.7287 88.4181 35.9702C88.8101 35.2074 89.3662 34.6151 90.0864 34.1932C90.8108 33.767 91.6695 33.554 92.6624 33.554C93.6553 33.554 94.5118 33.767 95.232 34.1932C95.9564 34.6151 96.5146 35.2074 96.9067 35.9702C97.2987 36.7287 97.4948 37.6151 97.4948 38.6293C97.4948 39.6349 97.2987 40.5192 96.9067 41.282C96.5146 42.0405 95.9564 42.6328 95.232 43.0589C94.5118 43.4808 93.6553 43.6918 92.6624 43.6918ZM92.6752 41.5824C93.1269 41.5824 93.504 41.4545 93.8066 41.1989C94.1091 40.9389 94.3371 40.5852 94.4905 40.1378C94.6482 39.6903 94.727 39.1811 94.727 38.6101C94.727 38.0391 94.6482 37.5298 94.4905 37.0824C94.3371 36.6349 94.1091 36.2812 93.8066 36.0213C93.504 35.7614 93.1269 35.6314 92.6752 35.6314C92.2192 35.6314 91.8357 35.7614 91.5246 36.0213C91.2178 36.2812 90.9855 36.6349 90.8279 37.0824C90.6744 37.5298 90.5977 38.0391 90.5977 38.6101C90.5977 39.1811 90.6744 39.6903 90.8279 40.1378C90.9855 40.5852 91.2178 40.9389 91.5246 41.1989C91.8357 41.4545 92.2192 41.5824 92.6752 41.5824ZM103.689 47.3864C102.807 47.3864 102.05 47.2649 101.419 47.022C100.793 46.7834 100.294 46.4574 99.9237 46.044C99.553 45.6307 99.3122 45.1662 99.2014 44.6506L101.72 44.3118C101.797 44.5078 101.918 44.6911 102.084 44.8615C102.25 45.032 102.47 45.1683 102.743 45.2706C103.02 45.3771 103.356 45.4304 103.753 45.4304C104.345 45.4304 104.833 45.2855 105.216 44.9957C105.604 44.7102 105.798 44.2308 105.798 43.5575V41.7614H105.683C105.564 42.0341 105.385 42.2919 105.146 42.5348C104.907 42.7777 104.601 42.9759 104.226 43.1293C103.851 43.2827 103.403 43.3594 102.883 43.3594C102.146 43.3594 101.475 43.1889 100.87 42.848C100.269 42.5028 99.7895 41.9766 99.4316 41.2692C99.0779 40.5575 98.901 39.6584 98.901 38.5717C98.901 37.4595 99.0821 36.5305 99.4443 35.7848C99.8066 35.0391 100.288 34.4808 100.889 34.1101C101.494 33.7393 102.157 33.554 102.877 33.554C103.427 33.554 103.887 33.6477 104.258 33.8352C104.628 34.0185 104.927 34.2486 105.152 34.5256C105.383 34.7983 105.559 35.0668 105.683 35.331H105.785V33.6818H108.489V43.5959C108.489 44.4311 108.285 45.13 107.875 45.6925C107.466 46.255 106.9 46.6768 106.175 46.9581C105.455 47.2436 104.626 47.3864 103.689 47.3864ZM103.746 41.3139C104.185 41.3139 104.556 41.2053 104.858 40.9879C105.165 40.7663 105.4 40.451 105.562 40.0419C105.728 39.6286 105.811 39.1342 105.811 38.5589C105.811 37.9837 105.73 37.4851 105.568 37.0632C105.406 36.6371 105.172 36.3068 104.865 36.0724C104.558 35.8381 104.185 35.7209 103.746 35.7209C103.299 35.7209 102.922 35.8423 102.615 36.0852C102.308 36.3239 102.076 36.6562 101.918 37.0824C101.76 37.5085 101.682 38.0007 101.682 38.5589C101.682 39.1257 101.76 39.6158 101.918 40.0291C102.08 40.4382 102.312 40.7557 102.615 40.9815C102.922 41.2031 103.299 41.3139 103.746 41.3139ZM113.379 30.4091V43.5H110.656V30.4091H113.379ZM120.035 43.6918C119.025 43.6918 118.155 43.4872 117.427 43.0781C116.702 42.6648 116.144 42.081 115.752 41.3267C115.36 40.5682 115.164 39.6712 115.164 38.6357C115.164 37.6257 115.36 36.7393 115.752 35.9766C116.144 35.2138 116.696 34.6193 117.408 34.1932C118.123 33.767 118.963 33.554 119.926 33.554C120.574 33.554 121.177 33.6584 121.735 33.8672C122.297 34.0717 122.788 34.3807 123.205 34.794C123.627 35.2074 123.955 35.7273 124.19 36.3537C124.424 36.9759 124.541 37.7045 124.541 38.5398V39.2876H116.251V37.6001H121.978C121.978 37.2081 121.893 36.8608 121.722 36.5582C121.552 36.2557 121.315 36.0192 121.013 35.8487C120.714 35.674 120.367 35.5866 119.971 35.5866C119.557 35.5866 119.191 35.6825 118.871 35.8743C118.556 36.0618 118.309 36.3153 118.13 36.6349C117.951 36.9503 117.859 37.3018 117.855 37.6896V39.294C117.855 39.7798 117.945 40.1996 118.123 40.5533C118.307 40.907 118.565 41.1797 118.897 41.3714C119.229 41.5632 119.623 41.6591 120.079 41.6591C120.382 41.6591 120.659 41.6165 120.91 41.5312C121.162 41.446 121.377 41.3182 121.556 41.1477C121.735 40.9773 121.871 40.7685 121.965 40.5213L124.484 40.6875C124.356 41.2926 124.094 41.821 123.697 42.2727C123.305 42.7202 122.798 43.0696 122.176 43.321C121.558 43.5682 120.844 43.6918 120.035 43.6918ZM130.535 43.5V30.4091H135.7C136.693 30.4091 137.539 30.5987 138.238 30.978C138.937 31.353 139.469 31.875 139.836 32.544C140.206 33.2088 140.392 33.9759 140.392 34.8452C140.392 35.7145 140.204 36.4815 139.829 37.1463C139.454 37.8111 138.911 38.3288 138.199 38.6996C137.492 39.0703 136.635 39.2557 135.63 39.2557H132.338V37.0376H135.182C135.715 37.0376 136.154 36.946 136.499 36.7628C136.848 36.5753 137.108 36.3175 137.279 35.9893C137.454 35.657 137.541 35.2756 137.541 34.8452C137.541 34.4105 137.454 34.0312 137.279 33.7074C137.108 33.3793 136.848 33.1257 136.499 32.9467C136.15 32.7635 135.706 32.6719 135.169 32.6719H133.303V43.5H130.535ZM144.861 30.4091V43.5H142.138V30.4091H144.861ZM149.842 43.6854C149.216 43.6854 148.658 43.5767 148.168 43.3594C147.678 43.1378 147.29 42.8118 147.004 42.3814C146.723 41.9467 146.582 41.4055 146.582 40.7578C146.582 40.2124 146.683 39.7543 146.883 39.3835C147.083 39.0128 147.356 38.7145 147.701 38.4886C148.046 38.2628 148.438 38.0923 148.877 37.9773C149.32 37.8622 149.785 37.7812 150.271 37.7344C150.842 37.6747 151.302 37.6193 151.651 37.5682C152.001 37.5128 152.254 37.4318 152.412 37.3253C152.57 37.2187 152.649 37.0611 152.649 36.8523V36.8139C152.649 36.4091 152.521 36.0959 152.265 35.8743C152.014 35.6527 151.656 35.5419 151.191 35.5419C150.701 35.5419 150.311 35.6506 150.021 35.8679C149.732 36.081 149.54 36.3494 149.446 36.6733L146.928 36.4688C147.055 35.8722 147.307 35.3565 147.682 34.9219C148.057 34.483 148.541 34.1463 149.133 33.9119C149.729 33.6733 150.42 33.554 151.204 33.554C151.749 33.554 152.271 33.6179 152.77 33.7457C153.273 33.8736 153.718 34.0717 154.106 34.3402C154.498 34.6087 154.807 34.9538 155.033 35.3757C155.259 35.7933 155.372 36.294 155.372 36.8778V43.5H152.789V42.1385H152.712C152.555 42.4453 152.344 42.7159 152.08 42.9503C151.815 43.1804 151.498 43.3615 151.127 43.4936C150.756 43.6214 150.328 43.6854 149.842 43.6854ZM150.622 41.8061C151.023 41.8061 151.377 41.7273 151.683 41.5696C151.99 41.4077 152.231 41.1903 152.406 40.9176C152.58 40.6449 152.668 40.3359 152.668 39.9908V38.9489C152.582 39.0043 152.465 39.0554 152.316 39.1023C152.171 39.1449 152.007 39.1854 151.824 39.2237C151.641 39.2578 151.457 39.2898 151.274 39.3196C151.091 39.3452 150.925 39.3686 150.776 39.3899C150.456 39.4368 150.177 39.5114 149.938 39.6136C149.7 39.7159 149.514 39.8544 149.382 40.0291C149.25 40.1996 149.184 40.4126 149.184 40.6683C149.184 41.0391 149.318 41.3224 149.587 41.5185C149.859 41.7102 150.205 41.8061 150.622 41.8061ZM158.814 47.1818C158.468 47.1818 158.145 47.1541 157.842 47.0987C157.544 47.0476 157.297 46.9815 157.101 46.9006L157.714 44.8679C158.034 44.9659 158.321 45.0192 158.577 45.0277C158.837 45.0362 159.061 44.9766 159.248 44.8487C159.44 44.7209 159.596 44.5036 159.715 44.1967L159.875 43.7812L156.353 33.6818H159.216L161.249 40.892H161.351L163.403 33.6818H166.286L162.47 44.5611C162.287 45.0895 162.037 45.5497 161.722 45.9418C161.411 46.3381 161.017 46.6428 160.54 46.8558C160.062 47.0732 159.487 47.1818 158.814 47.1818Z" fill="white"/>
</svg>
