<svg width="175" height="62" viewBox="0 0 175 62" fill="none" xmlns="http://www.w3.org/2000/svg">
<rect width="175" height="62" rx="8" fill="#111928"/>
<path d="M48.6527 40.7429C48.141 41.925 47.5353 43.0131 46.8336 44.0135C45.877 45.3773 45.0938 46.3213 44.4903 46.8456C43.5546 47.706 42.5521 48.1467 41.4786 48.1718C40.7079 48.1718 39.7785 47.9525 38.6967 47.5076C37.6113 47.0649 36.6138 46.8456 35.7017 46.8456C34.7452 46.8456 33.7193 47.0649 32.622 47.5076C31.523 47.9525 30.6377 48.1843 29.9608 48.2073C28.9314 48.2511 27.9053 47.7979 26.8811 46.8456C26.2274 46.2754 25.4097 45.298 24.4302 43.9133C23.3792 42.4346 22.5152 40.7199 21.8383 38.765C21.1134 36.6535 20.75 34.6089 20.75 32.6294C20.75 30.3619 21.24 28.4062 22.2214 26.7673C22.9927 25.4509 24.0187 24.4125 25.303 23.6502C26.5872 22.8878 27.9748 22.4994 29.4692 22.4745C30.2868 22.4745 31.3591 22.7274 32.6916 23.2245C34.0203 23.7233 34.8734 23.9762 35.2475 23.9762C35.5271 23.9762 36.4749 23.6804 38.0816 23.0909C39.601 22.5441 40.8834 22.3177 41.9339 22.4069C44.7806 22.6366 46.9192 23.7588 48.3415 25.7805C45.7956 27.323 44.5362 29.4836 44.5613 32.2553C44.5842 34.4142 45.3674 36.2108 46.9067 37.6372C47.6042 38.2993 48.3833 38.811 49.25 39.1744C49.062 39.7195 48.8636 40.2416 48.6527 40.7429ZM42.124 15.0519C42.124 16.744 41.5058 18.324 40.2735 19.7864C38.7865 21.5249 36.9879 22.5295 35.0374 22.3709C35.0125 22.1679 34.9981 21.9543 34.9981 21.7298C34.9981 20.1053 35.7053 18.3668 36.9611 16.9454C37.5881 16.2256 38.3855 15.6272 39.3525 15.1498C40.3174 14.6796 41.2301 14.4195 42.0885 14.375C42.1135 14.6012 42.124 14.8274 42.124 15.0519V15.0519Z" fill="white"/>
<path d="M66.2207 23.5H63.5275V14.7727H66.34C67.1866 14.7727 67.911 14.9474 68.5133 15.2969C69.1156 15.6435 69.5772 16.142 69.8983 16.7926C70.2193 17.4403 70.3798 18.2159 70.3798 19.1193C70.3798 20.0284 70.2179 20.8111 69.894 21.4673C69.5701 22.1207 69.0985 22.6236 68.4792 22.9759C67.8599 23.3253 67.1071 23.5 66.2207 23.5ZM64.5843 22.5625H66.1525C66.8741 22.5625 67.4721 22.4233 67.9466 22.1449C68.421 21.8665 68.7747 21.4702 69.0076 20.956C69.2406 20.4418 69.3571 19.8295 69.3571 19.1193C69.3571 18.4148 69.242 17.8082 69.0119 17.2997C68.7818 16.7884 68.438 16.3963 67.9806 16.1236C67.5233 15.848 66.9537 15.7102 66.2718 15.7102H64.5843V22.5625ZM74.6752 23.6364C74.0843 23.6364 73.5659 23.4957 73.1199 23.2145C72.6767 22.9332 72.3301 22.5398 72.0801 22.0341C71.8329 21.5284 71.7093 20.9375 71.7093 20.2614C71.7093 19.5795 71.8329 18.9844 72.0801 18.4759C72.3301 17.9673 72.6767 17.5724 73.1199 17.2912C73.5659 17.0099 74.0843 16.8693 74.6752 16.8693C75.2662 16.8693 75.7832 17.0099 76.2264 17.2912C76.6724 17.5724 77.019 17.9673 77.2662 18.4759C77.5162 18.9844 77.6412 19.5795 77.6412 20.2614C77.6412 20.9375 77.5162 21.5284 77.2662 22.0341C77.019 22.5398 76.6724 22.9332 76.2264 23.2145C75.7832 23.4957 75.2662 23.6364 74.6752 23.6364ZM74.6752 22.733C75.1241 22.733 75.4934 22.6179 75.7832 22.3878C76.073 22.1577 76.2875 21.8551 76.4267 21.4801C76.5659 21.1051 76.6355 20.6989 76.6355 20.2614C76.6355 19.8239 76.5659 19.4162 76.4267 19.0384C76.2875 18.6605 76.073 18.3551 75.7832 18.1222C75.4934 17.8892 75.1241 17.7727 74.6752 17.7727C74.2264 17.7727 73.8571 17.8892 73.5673 18.1222C73.2775 18.3551 73.063 18.6605 72.9238 19.0384C72.7846 19.4162 72.715 19.8239 72.715 20.2614C72.715 20.6989 72.7846 21.1051 72.9238 21.4801C73.063 21.8551 73.2775 22.1577 73.5673 22.3878C73.8571 22.6179 74.2264 22.733 74.6752 22.733ZM80.4366 23.5L78.4423 16.9545H79.4991L80.9139 21.9659H80.9821L82.3798 16.9545H83.4537L84.8343 21.9489H84.9025L86.3173 16.9545H87.3741L85.3798 23.5H84.3912L82.9593 18.4716H82.8571L81.4252 23.5H80.4366ZM89.7093 19.5625V23.5H88.7037V16.9545H89.6752V17.9773H89.7605C89.9139 17.6449 90.1468 17.3778 90.4593 17.1761C90.7718 16.9716 91.1752 16.8693 91.6696 16.8693C92.1127 16.8693 92.5005 16.9602 92.8329 17.142C93.1653 17.321 93.4238 17.5938 93.6085 17.9602C93.7931 18.3239 93.8855 18.7841 93.8855 19.3409V23.5H92.8798V19.4091C92.8798 18.8949 92.7463 18.4943 92.4792 18.2074C92.2122 17.9176 91.8457 17.7727 91.3798 17.7727C91.0588 17.7727 90.7718 17.8423 90.519 17.9815C90.269 18.1207 90.0716 18.3239 89.9267 18.5909C89.7818 18.858 89.7093 19.1818 89.7093 19.5625ZM96.7289 14.7727V23.5H95.7232V14.7727H96.7289ZM101.23 23.6364C100.639 23.6364 100.121 23.4957 99.6745 23.2145C99.2314 22.9332 98.8848 22.5398 98.6348 22.0341C98.3876 21.5284 98.264 20.9375 98.264 20.2614C98.264 19.5795 98.3876 18.9844 98.6348 18.4759C98.8848 17.9673 99.2314 17.5724 99.6745 17.2912C100.121 17.0099 100.639 16.8693 101.23 16.8693C101.821 16.8693 102.338 17.0099 102.781 17.2912C103.227 17.5724 103.574 17.9673 103.821 18.4759C104.071 18.9844 104.196 19.5795 104.196 20.2614C104.196 20.9375 104.071 21.5284 103.821 22.0341C103.574 22.5398 103.227 22.9332 102.781 23.2145C102.338 23.4957 101.821 23.6364 101.23 23.6364ZM101.23 22.733C101.679 22.733 102.048 22.6179 102.338 22.3878C102.628 22.1577 102.842 21.8551 102.981 21.4801C103.121 21.1051 103.19 20.6989 103.19 20.2614C103.19 19.8239 103.121 19.4162 102.981 19.0384C102.842 18.6605 102.628 18.3551 102.338 18.1222C102.048 17.8892 101.679 17.7727 101.23 17.7727C100.781 17.7727 100.412 17.8892 100.122 18.1222C99.8322 18.3551 99.6177 18.6605 99.4785 19.0384C99.3393 19.4162 99.2697 19.8239 99.2697 20.2614C99.2697 20.6989 99.3393 21.1051 99.4785 21.4801C99.6177 21.8551 99.8322 22.1577 100.122 22.3878C100.412 22.6179 100.781 22.733 101.23 22.733ZM107.657 23.6534C107.242 23.6534 106.866 23.5753 106.528 23.419C106.19 23.2599 105.921 23.0312 105.722 22.733C105.524 22.4318 105.424 22.0682 105.424 21.642C105.424 21.267 105.498 20.9631 105.646 20.7301C105.794 20.4943 105.991 20.3097 106.238 20.1761C106.485 20.0426 106.758 19.9432 107.056 19.8778C107.357 19.8097 107.66 19.7557 107.964 19.7159C108.362 19.6648 108.684 19.6264 108.931 19.6009C109.181 19.5724 109.363 19.5256 109.477 19.4602C109.593 19.3949 109.651 19.2812 109.651 19.1193V19.0852C109.651 18.6648 109.536 18.3381 109.306 18.1051C109.079 17.8722 108.734 17.7557 108.271 17.7557C107.791 17.7557 107.414 17.8608 107.142 18.071C106.869 18.2812 106.677 18.5057 106.566 18.7443L105.612 18.4034C105.782 18.0057 106.009 17.696 106.294 17.4744C106.58 17.25 106.893 17.0937 107.231 17.0057C107.572 16.9148 107.907 16.8693 108.237 16.8693C108.447 16.8693 108.688 16.8949 108.961 16.946C109.237 16.9943 109.502 17.0952 109.758 17.2486C110.017 17.402 110.231 17.6335 110.401 17.9432C110.572 18.2528 110.657 18.6676 110.657 19.1875V23.5H109.651V22.6136H109.6C109.532 22.7557 109.419 22.9077 109.259 23.0696C109.1 23.2315 108.889 23.3693 108.624 23.483C108.36 23.5966 108.038 23.6534 107.657 23.6534ZM107.811 22.75C108.208 22.75 108.544 22.6719 108.816 22.5156C109.092 22.3594 109.299 22.1577 109.438 21.9105C109.58 21.6634 109.651 21.4034 109.651 21.1307V20.2102C109.609 20.2614 109.515 20.3082 109.37 20.3509C109.228 20.3906 109.063 20.4261 108.876 20.4574C108.691 20.4858 108.511 20.5114 108.335 20.5341C108.161 20.554 108.021 20.571 107.913 20.5852C107.651 20.6193 107.407 20.6747 107.18 20.7514C106.955 20.8253 106.774 20.9375 106.634 21.0881C106.498 21.2358 106.43 21.4375 106.43 21.6932C106.43 22.0426 106.559 22.3068 106.818 22.4858C107.079 22.6619 107.41 22.75 107.811 22.75ZM114.964 23.6364C114.419 23.6364 113.937 23.4986 113.52 23.223C113.102 22.9446 112.775 22.5526 112.54 22.0469C112.304 21.5384 112.186 20.9375 112.186 20.2443C112.186 19.5568 112.304 18.9602 112.54 18.4545C112.775 17.9489 113.104 17.5582 113.524 17.2827C113.944 17.0071 114.43 16.8693 114.981 16.8693C115.407 16.8693 115.744 16.9403 115.991 17.0824C116.241 17.2216 116.432 17.3807 116.562 17.5597C116.696 17.7358 116.8 17.8807 116.873 17.9943H116.959V14.7727H117.964V23.5H116.993V22.4943H116.873C116.8 22.6136 116.694 22.7642 116.558 22.946C116.422 23.125 116.227 23.2855 115.974 23.4276C115.721 23.5668 115.385 23.6364 114.964 23.6364ZM115.101 22.733C115.504 22.733 115.845 22.6278 116.123 22.4176C116.402 22.2045 116.613 21.9105 116.758 21.5355C116.903 21.1577 116.976 20.7216 116.976 20.2273C116.976 19.7386 116.905 19.3111 116.763 18.9446C116.621 18.5753 116.41 18.2884 116.132 18.0838C115.854 17.8764 115.51 17.7727 115.101 17.7727C114.675 17.7727 114.319 17.8821 114.035 18.1009C113.754 18.3168 113.542 18.6108 113.4 18.983C113.261 19.3523 113.192 19.767 113.192 20.2273C113.192 20.6932 113.263 21.1165 113.405 21.4972C113.55 21.875 113.763 22.1761 114.044 22.4006C114.328 22.6222 114.68 22.733 115.101 22.733ZM125.98 23.6364C125.389 23.6364 124.871 23.4957 124.425 23.2145C123.981 22.9332 123.635 22.5398 123.385 22.0341C123.138 21.5284 123.014 20.9375 123.014 20.2614C123.014 19.5795 123.138 18.9844 123.385 18.4759C123.635 17.9673 123.981 17.5724 124.425 17.2912C124.871 17.0099 125.389 16.8693 125.98 16.8693C126.571 16.8693 127.088 17.0099 127.531 17.2912C127.977 17.5724 128.324 17.9673 128.571 18.4759C128.821 18.9844 128.946 19.5795 128.946 20.2614C128.946 20.9375 128.821 21.5284 128.571 22.0341C128.324 22.5398 127.977 22.9332 127.531 23.2145C127.088 23.4957 126.571 23.6364 125.98 23.6364ZM125.98 22.733C126.429 22.733 126.798 22.6179 127.088 22.3878C127.378 22.1577 127.592 21.8551 127.731 21.4801C127.871 21.1051 127.94 20.6989 127.94 20.2614C127.94 19.8239 127.871 19.4162 127.731 19.0384C127.592 18.6605 127.378 18.3551 127.088 18.1222C126.798 17.8892 126.429 17.7727 125.98 17.7727C125.531 17.7727 125.162 17.8892 124.872 18.1222C124.582 18.3551 124.368 18.6605 124.229 19.0384C124.089 19.4162 124.02 19.8239 124.02 20.2614C124.02 20.6989 124.089 21.1051 124.229 21.4801C124.368 21.8551 124.582 22.1577 124.872 22.3878C125.162 22.6179 125.531 22.733 125.98 22.733ZM131.487 19.5625V23.5H130.481V16.9545H131.453V17.9773H131.538C131.691 17.6449 131.924 17.3778 132.237 17.1761C132.549 16.9716 132.953 16.8693 133.447 16.8693C133.89 16.8693 134.278 16.9602 134.61 17.142C134.943 17.321 135.201 17.5938 135.386 17.9602C135.57 18.3239 135.663 18.7841 135.663 19.3409V23.5H134.657V19.4091C134.657 18.8949 134.524 18.4943 134.257 18.2074C133.99 17.9176 133.623 17.7727 133.157 17.7727C132.836 17.7727 132.549 17.8423 132.296 17.9815C132.046 18.1207 131.849 18.3239 131.704 18.5909C131.559 18.858 131.487 19.1818 131.487 19.5625ZM143.722 16.9545V17.8068H140.33V16.9545H143.722ZM141.319 15.3864H142.324V21.625C142.324 21.9091 142.366 22.1222 142.448 22.2642C142.533 22.4034 142.641 22.4972 142.772 22.5455C142.905 22.5909 143.046 22.6136 143.194 22.6136C143.305 22.6136 143.395 22.608 143.466 22.5966C143.537 22.5824 143.594 22.571 143.637 22.5625L143.841 23.4659C143.773 23.4915 143.678 23.517 143.556 23.5426C143.434 23.571 143.279 23.5852 143.091 23.5852C142.807 23.5852 142.529 23.5241 142.256 23.402C141.986 23.2798 141.762 23.0938 141.583 22.8438C141.407 22.5938 141.319 22.2784 141.319 21.8977V15.3864ZM146.381 19.5625V23.5H145.376V14.7727H146.381V17.9773H146.466C146.62 17.6392 146.85 17.3707 147.157 17.1719C147.466 16.9702 147.878 16.8693 148.393 16.8693C148.839 16.8693 149.229 16.9588 149.564 17.1378C149.9 17.3139 150.16 17.5852 150.344 17.9517C150.532 18.3153 150.626 18.7784 150.626 19.3409V23.5H149.62V19.4091C149.62 18.8892 149.485 18.4872 149.215 18.2031C148.948 17.9162 148.577 17.7727 148.103 17.7727C147.773 17.7727 147.478 17.8423 147.216 17.9815C146.958 18.1207 146.753 18.3239 146.603 18.5909C146.455 18.858 146.381 19.1818 146.381 19.5625ZM155.21 23.6364C154.579 23.6364 154.035 23.4972 153.578 23.2188C153.123 22.9375 152.772 22.5455 152.525 22.0426C152.281 21.5369 152.159 20.9489 152.159 20.2784C152.159 19.608 152.281 19.017 152.525 18.5057C152.772 17.9915 153.116 17.5909 153.556 17.304C153.999 17.0142 154.517 16.8693 155.107 16.8693C155.448 16.8693 155.785 16.9261 156.117 17.0398C156.45 17.1534 156.752 17.3381 157.025 17.5938C157.298 17.8466 157.515 18.1818 157.677 18.5994C157.839 19.017 157.92 19.5312 157.92 20.142V20.5682H152.874V19.6989H156.897C156.897 19.3295 156.823 19 156.676 18.7102C156.531 18.4205 156.323 18.1918 156.053 18.0241C155.786 17.8565 155.471 17.7727 155.107 17.7727C154.707 17.7727 154.36 17.8722 154.068 18.071C153.778 18.267 153.555 18.5227 153.399 18.8381C153.242 19.1534 153.164 19.4915 153.164 19.8523V20.4318C153.164 20.9261 153.249 21.3452 153.42 21.6889C153.593 22.0298 153.833 22.2898 154.14 22.4688C154.447 22.6449 154.803 22.733 155.21 22.733C155.474 22.733 155.713 22.696 155.926 22.6222C156.142 22.5455 156.328 22.4318 156.484 22.2812C156.64 22.1278 156.761 21.9375 156.846 21.7102L157.818 21.983C157.715 22.3125 157.544 22.6023 157.302 22.8523C157.061 23.0994 156.762 23.2926 156.407 23.4318C156.052 23.5682 155.653 23.6364 155.21 23.6364Z" fill="white"/>
<path d="M65.5758 43.5H62.6099L67.1291 30.4091H70.6958L75.2086 43.5H72.2427L68.9636 33.4006H68.8613L65.5758 43.5ZM65.3904 38.3544H72.3961V40.5149H65.3904V38.3544ZM76.7331 47.1818V33.6818H79.4178V35.331H79.5392C79.6586 35.0668 79.8311 34.7983 80.057 34.5256C80.2871 34.2486 80.5854 34.0185 80.9519 33.8352C81.3226 33.6477 81.7828 33.554 82.3326 33.554C83.0485 33.554 83.709 33.7415 84.3141 34.1165C84.9192 34.4872 85.4029 35.0476 85.7651 35.7976C86.1273 36.5433 86.3084 37.4787 86.3084 38.6037C86.3084 39.6989 86.1316 40.6236 85.7779 41.3778C85.4284 42.1278 84.9512 42.6967 84.3461 43.0845C83.7452 43.468 83.0719 43.6598 82.3262 43.6598C81.7978 43.6598 81.3482 43.5724 80.9775 43.3977C80.611 43.223 80.3105 43.0036 80.0762 42.7393C79.8418 42.4709 79.6628 42.2003 79.5392 41.9276H79.4561V47.1818H76.7331ZM79.3986 38.5909C79.3986 39.1747 79.4796 39.6839 79.6415 40.1186C79.8034 40.5533 80.0378 40.892 80.3446 41.1349C80.6515 41.3736 81.0243 41.4929 81.4632 41.4929C81.9064 41.4929 82.2814 41.3714 82.5882 41.1286C82.8951 40.8814 83.1273 40.5405 83.285 40.1058C83.4469 39.6669 83.5279 39.1619 83.5279 38.5909C83.5279 38.0241 83.449 37.5256 83.2914 37.0952C83.1337 36.6648 82.9015 36.3281 82.5946 36.0852C82.2878 35.8423 81.9107 35.7209 81.4632 35.7209C81.0201 35.7209 80.6451 35.8381 80.3382 36.0724C80.0357 36.3068 79.8034 36.6392 79.6415 37.0696C79.4796 37.5 79.3986 38.0071 79.3986 38.5909ZM88.1238 47.1818V33.6818H90.8084V35.331H90.9299C91.0492 35.0668 91.2218 34.7983 91.4476 34.5256C91.6777 34.2486 91.976 34.0185 92.3425 33.8352C92.7132 33.6477 93.1735 33.554 93.7232 33.554C94.4391 33.554 95.0996 33.7415 95.7047 34.1165C96.3098 34.4872 96.7935 35.0476 97.1557 35.7976C97.5179 36.5433 97.699 37.4787 97.699 38.6037C97.699 39.6989 97.5222 40.6236 97.1685 41.3778C96.8191 42.1278 96.3418 42.6967 95.7367 43.0845C95.1358 43.468 94.4625 43.6598 93.7168 43.6598C93.1884 43.6598 92.7388 43.5724 92.3681 43.3977C92.0016 43.223 91.7012 43.0036 91.4668 42.7393C91.2324 42.4709 91.0534 42.2003 90.9299 41.9276H90.8468V47.1818H88.1238ZM90.7892 38.5909C90.7892 39.1747 90.8702 39.6839 91.0321 40.1186C91.1941 40.5533 91.4284 40.892 91.7353 41.1349C92.0421 41.3736 92.415 41.4929 92.8539 41.4929C93.2971 41.4929 93.6721 41.3714 93.9789 41.1286C94.2857 40.8814 94.5179 40.5405 94.6756 40.1058C94.8375 39.6669 94.9185 39.1619 94.9185 38.5909C94.9185 38.0241 94.8397 37.5256 94.682 37.0952C94.5243 36.6648 94.2921 36.3281 93.9853 36.0852C93.6784 35.8423 93.3013 35.7209 92.8539 35.7209C92.4107 35.7209 92.0357 35.8381 91.7289 36.0724C91.4263 36.3068 91.1941 36.6392 91.0321 37.0696C90.8702 37.5 90.7892 38.0071 90.7892 38.5909ZM106.667 34.174C106.616 33.6584 106.396 33.2578 106.009 32.9723C105.621 32.6868 105.095 32.544 104.43 32.544C103.978 32.544 103.597 32.608 103.286 32.7358C102.975 32.8594 102.736 33.032 102.57 33.2536C102.408 33.4751 102.327 33.7266 102.327 34.0078C102.318 34.2422 102.367 34.4467 102.474 34.6214C102.585 34.7962 102.736 34.9474 102.928 35.0753C103.119 35.1989 103.341 35.3075 103.593 35.4013C103.844 35.4908 104.112 35.5675 104.398 35.6314L105.574 35.9126C106.145 36.0405 106.669 36.2109 107.146 36.424C107.624 36.6371 108.037 36.8991 108.387 37.2102C108.736 37.5213 109.007 37.8878 109.198 38.3097C109.394 38.7315 109.494 39.2152 109.499 39.7607C109.494 40.5618 109.29 41.2564 108.885 41.8445C108.485 42.4283 107.905 42.8821 107.146 43.206C106.392 43.5256 105.482 43.6854 104.417 43.6854C103.36 43.6854 102.44 43.5234 101.656 43.1996C100.876 42.8757 100.267 42.3963 99.8276 41.7614C99.3929 41.1222 99.165 40.3317 99.1436 39.3899H101.822C101.852 39.8288 101.977 40.1953 102.199 40.4893C102.425 40.7791 102.725 40.9986 103.1 41.1477C103.48 41.2926 103.908 41.3651 104.385 41.3651C104.854 41.3651 105.261 41.2969 105.606 41.1605C105.955 41.0241 106.226 40.8345 106.418 40.5916C106.61 40.3487 106.705 40.0696 106.705 39.7543C106.705 39.4602 106.618 39.2131 106.443 39.0128C106.273 38.8125 106.021 38.642 105.689 38.5014C105.361 38.3608 104.958 38.233 104.481 38.1179L103.056 37.7599C101.952 37.4915 101.08 37.0717 100.441 36.5007C99.802 35.9297 99.4846 35.1605 99.4888 34.1932C99.4846 33.4006 99.6955 32.7081 100.122 32.1158C100.552 31.5234 101.142 31.0611 101.892 30.7287C102.642 30.3963 103.494 30.2301 104.449 30.2301C105.421 30.2301 106.269 30.3963 106.993 30.7287C107.722 31.0611 108.289 31.5234 108.693 32.1158C109.098 32.7081 109.307 33.3942 109.32 34.174H106.667ZM116.532 33.6818V35.7273H110.619V33.6818H116.532ZM111.961 31.3295H114.684V40.483C114.684 40.7344 114.723 40.9304 114.799 41.071C114.876 41.2074 114.983 41.3033 115.119 41.3587C115.26 41.4141 115.422 41.4418 115.605 41.4418C115.733 41.4418 115.86 41.4311 115.988 41.4098C116.116 41.3842 116.214 41.3651 116.282 41.3523L116.711 43.3786C116.574 43.4212 116.382 43.4702 116.135 43.5256C115.888 43.5852 115.588 43.6214 115.234 43.6342C114.578 43.6598 114.002 43.5724 113.508 43.3722C113.018 43.1719 112.637 42.8608 112.364 42.4389C112.091 42.017 111.957 41.4844 111.961 40.8409V31.3295ZM122.636 43.6918C121.643 43.6918 120.784 43.4808 120.06 43.0589C119.34 42.6328 118.784 42.0405 118.392 41.282C118 40.5192 117.804 39.6349 117.804 38.6293C117.804 37.6151 118 36.7287 118.392 35.9702C118.784 35.2074 119.34 34.6151 120.06 34.1932C120.784 33.767 121.643 33.554 122.636 33.554C123.629 33.554 124.485 33.767 125.206 34.1932C125.93 34.6151 126.488 35.2074 126.88 35.9702C127.272 36.7287 127.468 37.6151 127.468 38.6293C127.468 39.6349 127.272 40.5192 126.88 41.282C126.488 42.0405 125.93 42.6328 125.206 43.0589C124.485 43.4808 123.629 43.6918 122.636 43.6918ZM122.649 41.5824C123.1 41.5824 123.478 41.4545 123.78 41.1989C124.083 40.9389 124.311 40.5852 124.464 40.1378C124.622 39.6903 124.701 39.1811 124.701 38.6101C124.701 38.0391 124.622 37.5298 124.464 37.0824C124.311 36.6349 124.083 36.2812 123.78 36.0213C123.478 35.7614 123.1 35.6314 122.649 35.6314C122.193 35.6314 121.809 35.7614 121.498 36.0213C121.191 36.2812 120.959 36.6349 120.801 37.0824C120.648 37.5298 120.571 38.0391 120.571 38.6101C120.571 39.1811 120.648 39.6903 120.801 40.1378C120.959 40.5852 121.191 40.9389 121.498 41.1989C121.809 41.4545 122.193 41.5824 122.649 41.5824ZM129.239 43.5V33.6818H131.879V35.3949H131.981C132.16 34.7855 132.461 34.3253 132.882 34.0142C133.304 33.6989 133.79 33.5412 134.34 33.5412C134.476 33.5412 134.623 33.5497 134.781 33.5668C134.939 33.5838 135.077 33.6072 135.196 33.6371V36.0533C135.069 36.0149 134.892 35.9808 134.666 35.951C134.44 35.9212 134.233 35.9062 134.046 35.9062C133.645 35.9062 133.287 35.9936 132.972 36.1683C132.661 36.3388 132.414 36.5774 132.23 36.8842C132.051 37.1911 131.962 37.5447 131.962 37.9453V43.5H129.239ZM140.622 43.6918C139.612 43.6918 138.742 43.4872 138.014 43.0781C137.289 42.6648 136.731 42.081 136.339 41.3267C135.947 40.5682 135.751 39.6712 135.751 38.6357C135.751 37.6257 135.947 36.7393 136.339 35.9766C136.731 35.2138 137.283 34.6193 137.994 34.1932C138.71 33.767 139.55 33.554 140.513 33.554C141.161 33.554 141.764 33.6584 142.322 33.8672C142.884 34.0717 143.374 34.3807 143.792 34.794C144.214 35.2074 144.542 35.7273 144.776 36.3537C145.011 36.9759 145.128 37.7045 145.128 38.5398V39.2876H136.838V37.6001H142.565C142.565 37.2081 142.48 36.8608 142.309 36.5582C142.139 36.2557 141.902 36.0192 141.6 35.8487C141.301 35.674 140.954 35.5866 140.558 35.5866C140.144 35.5866 139.778 35.6825 139.458 35.8743C139.143 36.0618 138.896 36.3153 138.717 36.6349C138.538 36.9503 138.446 37.3018 138.442 37.6896V39.294C138.442 39.7798 138.531 40.1996 138.71 40.5533C138.894 40.907 139.151 41.1797 139.484 41.3714C139.816 41.5632 140.21 41.6591 140.666 41.6591C140.969 41.6591 141.246 41.6165 141.497 41.5312C141.749 41.446 141.964 41.3182 142.143 41.1477C142.322 40.9773 142.458 40.7685 142.552 40.5213L145.07 40.6875C144.943 41.2926 144.681 41.821 144.284 42.2727C143.892 42.7202 143.385 43.0696 142.763 43.321C142.145 43.5682 141.431 43.6918 140.622 43.6918Z" fill="white"/>
</svg>
